<svg width="104" height="58" viewBox="0 0 104 58" fill="none" xmlns="http://www.w3.org/2000/svg">
<path d="M15.407 14.343L11.656 4.795L7.874 14.343H15.407ZM22.599 23.457H19.003L16.647 17.536H6.603L4.216 23.457H0.651L10.075 0.330998H13.454L22.599 23.457ZM37.6362 23.333H25.9802V0.392999H29.3282V20.14H37.6362V23.333ZM52.0008 3.555H44.2198V9.941H51.5668V13.134H44.2198V23.333H40.8408V0.392999H52.0008V3.555ZM68.5974 14.343L64.8464 4.795L61.0644 14.343H68.5974ZM75.7894 23.457H72.1934L69.8374 17.536H59.7934L57.4064 23.457H53.8414L63.2654 0.330998H66.6444L75.7894 23.457ZM6.324 54.14H7.44C13.7227 54.14 16.864 51.3293 16.864 45.708C16.864 40.2727 14.1773 37.555 8.804 37.555H6.324V54.14ZM2.945 34.393H8.804C12.6893 34.393 15.6137 35.4677 17.577 37.617C19.3337 39.5597 20.212 42.2877 20.212 45.801C20.212 49.769 18.9513 52.7347 16.43 54.698C14.2187 56.4547 11.1497 57.333 7.223 57.333H2.945V34.393ZM32.0404 43.073C30.6351 43.073 29.5191 43.631 28.6924 44.747C27.9071 45.8423 27.5144 47.258 27.5144 48.994C27.5144 50.73 27.9071 52.1457 28.6924 53.241C29.5191 54.357 30.6351 54.915 32.0404 54.915C33.4458 54.915 34.5514 54.357 35.3574 53.241C36.1634 52.1663 36.5664 50.7507 36.5664 48.994C36.5664 47.258 36.1634 45.8423 35.3574 44.747C34.5514 43.631 33.4458 43.073 32.0404 43.073ZM32.0404 40.159C34.6031 40.159 36.5974 41.0787 38.0234 42.918C39.3048 44.5507 39.9454 46.576 39.9454 48.994C39.9454 51.412 39.3048 53.4373 38.0234 55.07C36.5974 56.9093 34.6031 57.829 32.0404 57.829C29.4571 57.829 27.4524 56.9093 26.0264 55.07C24.7658 53.4787 24.1354 51.4533 24.1354 48.994C24.1354 46.5347 24.7658 44.5093 26.0264 42.918C27.4524 41.0787 29.4571 40.159 32.0404 40.159ZM57.4432 57.457H54.2192V47.072C54.2192 44.406 53.2479 43.073 51.3052 43.073C49.9826 43.073 48.9802 43.6 48.2982 44.654C47.7402 45.5633 47.4612 46.731 47.4612 48.157V57.457H44.2372V44.84C44.2372 44.034 44.2166 43.2797 44.1752 42.577C44.1546 41.8537 44.1236 41.1717 44.0822 40.531H47.1822V42.236C48.1949 40.8513 49.6932 40.159 51.6772 40.159C55.5212 40.159 57.4432 42.298 57.4432 46.576V57.457ZM71.717 57.488V55.845C70.7044 57.1677 69.2474 57.829 67.346 57.829C65.2794 57.829 63.75 57.2503 62.758 56.093C62.0554 55.2457 61.704 54.2123 61.704 52.993C61.704 48.777 64.804 46.669 71.004 46.669H71.469V46.111C71.469 44.0857 70.5287 43.073 68.648 43.073C66.9534 43.073 65.2794 43.5173 63.626 44.406V41.368C65.1967 40.562 66.9327 40.159 68.834 40.159C70.818 40.159 72.2647 40.624 73.174 41.554C74.1454 42.5667 74.631 44.1373 74.631 46.266V53.489C74.631 55.3903 74.693 56.7233 74.817 57.488H71.717ZM71.469 49.552H70.818C69.206 49.552 67.966 49.6967 67.098 49.986C65.7134 50.4407 65.021 51.3397 65.021 52.683C65.021 54.171 65.8787 54.915 67.594 54.915C70.1774 54.915 71.469 53.3443 71.469 50.203V49.552ZM87.7726 57.333C86.9873 57.6637 86.0986 57.829 85.1066 57.829C83.1433 57.829 81.8723 57.302 81.2936 56.248C80.8596 55.5453 80.6426 54.1917 80.6426 52.187V43.414H77.9766V40.345H80.6426V36.656L83.9906 35.571V40.345H87.2766V43.414H83.9906V53.055C83.9906 54.2537 84.5383 54.853 85.6336 54.853C86.357 54.853 86.9873 54.7187 87.5246 54.45L87.7726 57.333ZM103.777 50.172H93.3303C93.3923 51.66 93.7953 52.8173 94.5393 53.644C95.304 54.5327 96.358 54.977 97.7013 54.977C99.5613 54.977 101.204 54.574 102.63 53.768V56.899C100.977 57.519 99.303 57.829 97.6083 57.829C94.9423 57.829 92.9583 56.9817 91.6563 55.287C90.5197 53.7783 89.9513 51.6703 89.9513 48.963C89.9513 46.359 90.5817 44.2407 91.8423 42.608C93.103 40.9753 94.7977 40.159 96.9263 40.159C99.303 40.159 101.08 41.0063 102.258 42.701C103.271 44.1477 103.777 46.0593 103.777 48.436V50.172ZM100.398 47.227C100.398 46.0697 100.099 45.0983 99.4993 44.313C98.8793 43.4863 98.063 43.073 97.0503 43.073C96.017 43.073 95.1387 43.4967 94.4153 44.344C93.692 45.1913 93.3303 46.1523 93.3303 47.227H100.398Z" fill="#F5F5F5"/>
</svg>
