<svg width="116" height="102" viewBox="0 0 116 102" fill="none" xmlns="http://www.w3.org/2000/svg">
<g clip-path="url(#clip0_30_23)">
<path d="M58.1592 0.394783C57.8897 0.631653 57.6651 0.986958 57.6651 1.18435C57.6651 1.44096 57.5078 1.57913 57.2608 1.57913C56.5645 1.57913 55.8682 2.30948 55.8682 3.05956C55.8682 3.80965 56.5645 4.54 57.2608 4.54C57.6201 4.54 57.6651 4.73739 57.6651 6.27704V8.03382L55.9356 8.01408C54.5431 7.99434 54.004 8.09304 53.2853 8.4286C51.4435 9.29712 50.4553 10.7183 50.4328 12.5343C50.4104 13.6002 51.0393 15.1004 51.6682 15.5742C51.8928 15.7123 52.05 16.1269 52.05 16.4822C52.05 17.3704 52.4767 18.3376 52.9484 18.5548C53.5099 18.8114 64.9647 18.8114 65.5262 18.5548C65.9978 18.3376 66.4246 17.3704 66.4246 16.4822C66.4246 16.1269 66.5818 15.7123 66.8064 15.5742C67.9294 14.7451 68.3786 12.258 67.6599 10.7381C66.8064 8.94182 65.077 7.99434 62.6737 8.01408H61.0341V6.27704C61.0341 4.97426 61.1015 4.54 61.3261 4.54C61.9325 4.54 62.6063 3.75043 62.6063 3.05956C62.6063 2.30948 61.9101 1.57913 61.2138 1.57913C60.9667 1.57913 60.8095 1.44096 60.8095 1.18435C60.8095 0.651392 59.956 1.90735e-06 59.2373 1.90735e-06C58.9228 1.90735e-06 58.4287 0.177654 58.1592 0.394783ZM57.2159 11.5474C58.7881 12.712 59.6865 12.712 61.2587 11.5474C62.3593 10.7381 63.2128 10.6591 64.0663 11.3105C64.9647 11.9816 64.9197 12.9686 63.9989 13.9161C63.5946 14.3109 63.2128 14.903 63.1229 15.2189L63.0106 15.7913H59.2373H55.4864L55.3516 15.2189C55.2618 14.903 54.9024 14.3306 54.4982 13.9358C53.5773 13.0081 53.5324 11.9619 54.4083 11.3105C55.2618 10.6591 56.1153 10.7381 57.2159 11.5474Z" fill="white"/>
<path d="M43.1557 11.2908C42.4819 11.5671 42.1674 12.2777 42.1674 13.4226C42.1674 14.3701 42.1674 14.3701 40.9546 14.982C38.8882 16.0084 37.8326 17.6073 37.8101 19.7391C37.8101 20.8248 37.9224 21.2196 38.5289 22.1868C38.9107 22.8184 39.2027 23.4106 39.1353 23.4896C39.0904 23.5685 38.3941 23.687 37.608 23.7264C35.4069 23.8843 33.8571 24.7529 32.8913 26.3517C32.4646 27.0426 32.3972 27.5558 32.3298 30.2996C32.24 33.2999 32.2624 33.4775 32.7341 33.9908C33.0935 34.4053 33.4079 34.5435 33.9919 34.5435C34.9577 34.5435 35.5416 34.0302 35.7213 33.0236C35.9908 31.6023 36.3277 31.4839 40.4829 31.4247L44.1215 31.3655L45.1546 32.3722C47.4905 34.6619 48.4563 36.9911 48.4563 40.3665V42.5773L46.9964 42.6957C46.1878 42.7747 45.2445 42.9721 44.9076 43.1497C44.0316 43.584 43.3578 44.5512 43.1781 45.5974C42.9535 46.8014 42.3246 47.3739 41.2241 47.3739C40.6626 47.3739 40.2134 47.2357 39.9214 46.9791C39.1577 46.308 39.1353 45.7158 39.8316 44.6301C40.3481 43.8406 40.438 43.5445 40.2583 43.1497C39.9214 42.3799 15.2375 17.5876 14.676 17.4494C14.0471 17.3112 13.0589 17.6468 12.7669 18.1008C12.0481 19.3049 11.8909 25.424 12.5198 27.8322C12.6546 28.3256 12.8118 28.9376 12.8792 29.1942L12.9915 29.6679L12.2503 29.1744C11.1946 28.4638 10.6331 28.3651 9.86948 28.7007C8.99353 29.0955 8.92615 29.2929 8.92615 31.6813C8.92615 34.0105 9.37536 36.5569 10.1615 38.6295C10.8353 40.406 10.8353 40.3862 10.2064 40.0112C9.15075 39.3993 7.84806 39.5572 7.35393 40.3665C6.99456 40.9587 7.15179 41.6693 8.31972 44.413C9.26306 46.6041 10.6781 48.7754 12.4075 50.6703L13.7776 52.1705L13.1262 52.7429C12.5872 53.2167 12.4973 53.4141 12.6096 53.9273C12.9465 55.4274 16.1808 58.5067 18.7862 59.8293C19.752 60.303 20.1114 60.5793 19.9991 60.7965C19.4151 62.119 20.0216 62.7901 22.3574 63.4415C25.5693 64.3298 29.6121 64.5469 32.9138 64.0337C33.4528 63.935 33.6325 63.9745 33.6325 64.1916C33.6325 64.3495 33.8571 64.6851 34.1266 64.922C34.5534 65.3562 34.7331 65.3759 36.2154 65.2773C37.8101 65.1786 41.5835 64.2113 42.5717 63.6389L43.0658 63.3626V64.6259V65.8892L42.1225 66.3826C38.8882 68.0407 36.6871 70.9819 36.0807 74.4362C35.6539 76.8641 36.2154 77.3773 39.3599 77.3773H41.269V78.4432C41.269 80.6935 41.1792 80.733 34.2389 80.733H28.7362L22.0654 73.4098C18.4044 69.4027 15.3723 65.9879 15.3049 65.8497C15.26 65.7313 15.3498 65.2378 15.5519 64.764C16.2033 63.106 15.8664 61.5071 14.5637 60.1846C13.553 59.1187 12.3177 58.6252 10.6556 58.6252C8.56679 58.6252 6.88226 59.4937 5.98385 61.0136C4.16456 64.1521 6.65766 67.7841 10.6107 67.7644C11.3519 67.7644 12.0706 67.7249 12.2054 67.6854C12.3401 67.646 16.63 72.1859 21.7285 77.7721C26.8046 83.3583 31.2068 88.0365 31.4539 88.1746C32.1726 88.5299 32.5993 88.4905 33.2731 88.0167C34.2165 87.3653 34.0592 86.5758 32.7341 85.1348C32.1052 84.4637 31.6111 83.8715 31.6111 83.8123C31.6111 83.7531 33.4528 83.6938 35.7213 83.6938C37.9673 83.6938 40.2134 83.5952 40.685 83.4965C43.0658 83.0227 44.6381 81.108 44.6381 78.7196V77.3773H45.8509C47.4681 77.3773 48.1194 76.9233 48.3216 75.66C48.5012 74.4757 49.3098 73.39 50.3205 72.9558C51.5334 72.4623 54.5431 72.5215 55.6436 73.0545C57.418 73.9427 57.9346 75.8574 56.8565 77.7326C56.1827 78.917 55.7335 79.2131 50.3654 82.1739C48.2766 83.3188 46.1204 84.6413 45.6039 85.1151C44.4359 86.1612 43.6273 87.5825 43.3129 89.1024C42.9311 90.8789 42.9985 94.8464 43.4027 95.5176C43.9193 96.4256 44.8851 96.5835 45.8509 95.9124C46.4349 95.5176 46.4349 95.4781 46.4349 92.9712C46.4349 88.5102 46.929 87.5627 50.3205 85.6678C51.4435 85.0164 52.4093 84.5229 52.4318 84.5624C52.4767 84.5821 52.2072 85.0953 51.8254 85.6875C50.7697 87.4048 50.4553 88.8063 50.3205 92.3988C50.1633 96.0703 50.2756 96.9388 50.9719 97.5112C51.6008 98.0244 52.2746 98.0047 53.0382 97.4915L53.6222 97.0967V94.0964C53.6222 90.4644 53.8468 88.9839 54.6104 87.5035C55.1944 86.3981 57.0586 84.286 57.4629 84.286C57.5752 84.286 57.6651 87.5232 57.6651 92.2804C57.6651 100.235 57.6651 100.255 58.1592 100.669C59.1025 101.439 60.4277 101.045 60.8095 99.8602C60.9443 99.4851 61.0341 95.8729 61.0341 91.6882L61.0566 84.1873L62.0897 85.1743C63.37 86.4178 64.3807 88.2536 64.6278 89.8525C64.7401 90.5433 64.8524 92.4383 64.8524 94.0964V97.0967L65.4363 97.4915C66.2 98.0047 66.8738 98.0244 67.5027 97.5112C68.1989 96.9388 68.3112 96.0703 68.154 92.3988C68.0193 88.8063 67.7048 87.4048 66.6492 85.6875C66.2674 85.0953 65.9978 84.5821 66.0428 84.5624C66.0652 84.5229 67.031 85.0164 68.154 85.6678C71.5455 87.5627 72.0397 88.5102 72.0397 92.9712C72.0397 95.4781 72.0397 95.5176 72.6236 95.9124C73.5894 96.5835 74.5552 96.4256 75.0718 95.5176C75.4761 94.8464 75.5435 90.8789 75.1616 89.1024C74.8472 87.5825 74.0386 86.1612 72.8707 85.1151C72.3541 84.6413 70.2204 83.3188 68.1091 82.1739C62.7411 79.2131 62.2919 78.917 61.6181 77.7326C60.54 75.8574 61.0566 73.9427 62.8309 73.0545C63.9315 72.5215 66.9412 72.4623 68.154 72.9558C69.1647 73.39 69.9733 74.4757 70.153 75.66C70.3551 76.9233 71.0065 77.3773 72.6236 77.3773H73.8365V78.7591C73.8365 80.8119 74.8247 82.3121 76.6889 83.1214C77.7221 83.5557 78.0366 83.5952 83.2474 83.6544L88.7052 83.7333L89.7159 84.286C93.2647 86.2599 98.0262 84.9769 99.868 81.5423C100.699 79.9632 100.699 77.9103 99.8231 76.3509C99.1043 75.0481 97.622 73.8243 96.1845 73.2913L95.1738 72.936V71.8306C95.1738 70.4094 94.6123 69.6791 93.4893 69.6791C92.2989 69.6791 91.8047 70.291 91.8047 71.7517V72.9755L90.8614 73.2124C90.2325 73.39 89.4689 73.8638 88.5255 74.6928C86.8859 76.1338 86.3469 77.3576 86.4367 79.3907L86.5041 80.6343H82.4388C78.4408 80.6343 78.351 80.6343 77.7895 80.1605C77.2954 79.746 77.2055 79.5092 77.2055 78.5222V77.3773H79.1147C82.2591 77.3773 82.8206 76.8641 82.3939 74.4362C81.7874 70.9819 79.5863 68.0407 76.3745 66.3826L75.4087 65.8892V64.6259V63.3626L75.9253 63.6389C76.8911 64.2113 80.6644 65.1786 82.2591 65.2773C83.7415 65.3759 83.9212 65.3562 84.3479 64.922C84.6174 64.6851 84.842 64.3495 84.842 64.1916C84.842 63.9745 85.0217 63.935 85.5832 64.0337C88.84 64.5469 92.9278 64.3298 96.0947 63.4415C98.4755 62.7901 99.0594 62.119 98.4754 60.7965C98.3631 60.5793 98.7225 60.303 99.6883 59.8293C102.294 58.5067 105.528 55.4274 105.865 53.9273C105.977 53.4141 105.887 53.2167 105.348 52.7429L104.697 52.1705L106.067 50.6703C107.796 48.7754 109.211 46.6041 110.155 44.413C111.3 41.689 111.48 40.9587 111.143 40.3862C110.671 39.6164 109.795 39.4388 108.672 39.8928C108.178 40.0902 107.752 40.2086 107.752 40.1691C107.752 40.1099 107.999 39.419 108.313 38.6295C109.099 36.5569 109.548 34.0105 109.548 31.6813C109.548 29.2929 109.481 29.0955 108.605 28.7007C107.841 28.3454 107.28 28.4638 106.202 29.1942C105.528 29.6482 105.461 29.6482 105.573 29.3126C106.584 26.4702 106.651 19.6799 105.685 18.1008C105.416 17.6468 104.427 17.3112 103.799 17.4494C103.259 17.5876 78.5531 42.3799 78.2162 43.1497C78.0366 43.5445 78.1264 43.8406 78.643 44.6301C79.3393 45.7158 79.3168 46.308 78.5531 46.9791C78.2612 47.2357 77.812 47.3739 77.2505 47.3739C76.1499 47.3739 75.521 46.8014 75.3189 45.5974C75.1392 44.5709 74.4429 43.6037 73.567 43.1497C73.23 42.9721 72.2867 42.7747 71.4781 42.6957L70.0182 42.5773V40.3665C70.0182 36.9911 70.984 34.6619 73.3199 32.3722L74.3531 31.3655L77.9916 31.4247C82.1468 31.4839 82.4837 31.6023 82.7532 33.0236C82.9329 34.0302 83.5169 34.5435 84.4827 34.5435C85.0666 34.5435 85.3811 34.4053 85.7404 33.9908C86.2121 33.4775 86.2346 33.2999 86.1447 30.2996C86.0774 27.5558 86.01 27.0426 85.5832 26.3517C84.6174 24.7529 83.0677 23.8843 80.8666 23.7264C80.0805 23.687 79.3842 23.5685 79.3393 23.4896C79.2719 23.4106 79.5639 22.8184 79.9457 22.1868C81.5628 19.5812 80.5072 16.4427 77.52 14.982C76.3071 14.3701 76.3071 14.3701 76.3071 13.4226C76.3071 12.2383 75.9702 11.5671 75.2515 11.271C74.4878 10.9552 74.1958 10.9947 73.522 11.4684C73.0054 11.8237 72.9381 12.0014 72.9381 13.1265V14.3898L71.9723 14.7649C70.7819 15.2189 69.5915 16.2453 68.9851 17.2915C68.5358 18.1205 68.3786 20.7853 68.738 21.6538C68.9177 22.1078 68.9177 22.1078 66.5818 22.1078C64.5604 22.1078 64.1561 22.167 63.6395 22.5223C63.2127 22.8184 63.0555 23.1145 63.0555 23.608C63.0555 24.5357 63.7069 25.0687 64.8524 25.0687C65.3465 25.0687 65.7508 25.1279 65.7508 25.1871C65.7508 25.2661 64.8973 26.1149 63.8416 27.0623C61.91 28.8191 60.6074 30.418 59.8212 31.9379C59.5966 32.3919 59.3271 32.7669 59.2373 32.7669C59.1474 32.7669 58.8779 32.3919 58.6533 31.9379C57.8672 30.418 56.5645 28.8191 54.6329 27.0623C53.5773 26.1149 52.7238 25.2661 52.7238 25.1871C52.7238 25.1279 53.1281 25.0687 53.6222 25.0687C54.7677 25.0687 55.419 24.5357 55.419 23.608C55.419 23.1145 55.2618 22.8184 54.835 22.5223C54.3185 22.167 53.9142 22.1078 51.8927 22.1078C49.5569 22.1078 49.5569 22.1078 49.7366 21.6538C50.0959 20.7853 49.9387 18.1205 49.4895 17.2915C48.8831 16.2453 47.6927 15.2189 46.5023 14.7649L45.5365 14.3898V13.1265C45.5365 12.0014 45.4691 11.8237 44.9525 11.4684C44.3012 11.0144 43.8744 10.975 43.1557 11.2908ZM45.0873 17.4691C46.5472 18.1403 47.0862 19.6207 46.3226 20.9235C45.6488 22.0683 43.807 22.4434 42.4594 21.713C41.561 21.2393 41.2016 20.6471 41.2016 19.6404C41.2016 18.6732 41.7182 17.9034 42.684 17.4889C43.5824 17.0941 44.2562 17.0941 45.0873 17.4691ZM75.7456 17.4889C76.7339 17.9034 77.2729 18.6535 77.2729 19.6404C77.2729 20.6471 76.9135 21.2393 76.0151 21.713C74.0611 22.7592 71.815 21.6341 71.815 19.601C71.815 18.7127 72.2643 18.081 73.2525 17.5481C74.106 17.0941 74.7574 17.0743 75.7456 17.4889ZM26.4003 33.3986C34.3288 41.4127 36.485 43.7024 36.3951 44.0182C36.2379 44.5117 35.9235 44.5117 35.2047 44.0182C33.7448 43.0115 31.7234 44.2748 32.5544 45.6763C32.8689 46.2093 37.4957 49.2688 39.0005 49.94C39.7866 50.2755 40.2808 50.3545 41.5161 50.2953L43.0658 50.2361V52.5653V54.9142L39.6519 53.3351C37.7652 52.4863 31.7458 49.7426 26.288 47.2752L16.3381 42.7944L15.4396 41.5114C14.9231 40.8205 14.2043 39.5572 13.8225 38.7282C13.1487 37.228 12.2054 33.7736 12.3401 33.2209C12.385 33.0433 15.0354 34.6422 19.7071 37.6622C23.7275 40.2678 27.2313 42.4391 27.5008 42.5181C28.7137 42.8536 29.9715 41.4916 29.3426 40.5047C29.1629 40.2283 26.6024 38.4321 23.6377 36.5174C19.5948 33.9118 18.1124 32.8262 17.7531 32.2537C16.5627 30.418 15.4396 26.2925 15.4396 23.7067C15.4396 22.4236 15.4396 22.4236 15.8664 22.7987C16.091 23.0158 20.8526 27.7927 26.4003 33.3986ZM102.698 26.707C101.957 30.5759 100.969 32.4511 98.8573 33.9513C97.2401 35.1159 96.9032 35.6883 97.4198 36.5174C97.7118 37.0108 98.6551 37.3662 99.2391 37.2082C99.4637 37.149 101.081 36.1621 102.833 35.0369C104.607 33.8921 106.089 33.0038 106.134 33.0433C106.179 33.1025 106.112 33.7736 105.977 34.5632C105.573 36.7345 104.45 39.498 103.237 41.235L102.159 42.7747L92.209 47.2752C86.7287 49.7623 80.7093 52.4863 78.8451 53.3351L75.4087 54.9142V52.5653V50.2361L76.936 50.2953C77.9467 50.3348 78.7553 50.2558 79.2494 50.0781C80.4174 49.6439 94.1181 40.7021 94.4551 40.1691C95.0166 39.2216 94.1855 38.0965 92.9278 38.0965C92.5684 38.0965 90.7491 39.1624 87.5373 41.2548C84.887 42.9721 82.596 44.3933 82.4612 44.413C82.304 44.413 82.1468 44.2354 82.0794 44.0182C81.9896 43.7024 84.2581 41.2942 92.4336 33.0433L102.923 22.4631L102.99 23.6277C103.035 24.2594 102.9 25.6411 102.698 26.707ZM50.8596 27.8914C54.3409 31.0299 55.5538 32.5695 56.5645 35.2343C57.1709 36.7937 57.6651 39.8533 57.6651 41.8864V42.6365H54.7452H51.8254V40.3073C51.8254 37.4451 51.3537 35.6094 49.9836 33.2999C49.175 31.9182 48.5012 31.2076 45.4916 28.5033C43.5375 26.7663 41.9428 25.2661 41.9428 25.2069C41.9428 25.1279 43.2455 25.0687 44.8177 25.0687H47.7151L50.8596 27.8914ZM76.5317 25.2069C76.5317 25.2661 74.937 26.7663 72.983 28.5033C69.9733 31.2076 69.2995 31.9182 68.4909 33.2999C67.1208 35.6094 66.6492 37.4451 66.6492 40.3073V42.6365H63.8192H60.9667L61.079 39.8138C61.1689 37.3267 61.2587 36.8135 61.8651 35.2935C62.9657 32.5103 64.1336 31.0102 67.615 27.8914L70.7594 25.0687H73.6568C75.229 25.0687 76.5317 25.1279 76.5317 25.2069ZM39.6968 27.5361L40.685 28.4243H39.023C38.1021 28.4243 36.9566 28.523 36.4625 28.602L35.609 28.7796L35.7438 28.1875C35.9684 27.1413 36.6646 26.6873 38.0123 26.6676C38.5513 26.6478 38.9331 26.8649 39.6968 27.5361ZM82.1693 27.161C82.3939 27.3782 82.6409 27.8124 82.7308 28.1677L82.8655 28.7796L82.012 28.602C81.5179 28.523 80.3724 28.4243 79.4516 28.4243H77.7895L78.7777 27.5163C79.7211 26.6676 79.8334 26.6281 80.7767 26.707C81.3158 26.7663 81.9447 26.9636 82.1693 27.161ZM20.6954 48.0845C25.412 50.2163 29.3426 52.0323 29.4549 52.131C29.5896 52.2297 27.6581 52.3087 24.7382 52.3087H19.7745L18.4493 51.5586C16.8771 50.6506 14.9006 48.8543 13.8 47.3541C12.8118 45.9921 11.8011 44.2156 12.0032 44.2156C12.0931 44.2156 16.0012 45.9527 20.6954 48.0845ZM106.045 45.2421C104.472 47.9858 102.316 50.2361 100.025 51.5586L98.7001 52.3087H93.7363C90.8165 52.3087 88.8849 52.2297 89.0197 52.131C89.2667 51.9139 106.224 44.2354 106.471 44.2156C106.561 44.2156 106.359 44.6894 106.045 45.2421ZM71.9947 56.0394C72.0172 62.5533 71.9498 66.6393 71.815 67.113C71.5006 68.1197 70.7819 68.8698 69.7038 69.304C68.9626 69.6001 68.2214 69.6791 66.0428 69.6791C62.9432 69.6791 61.7079 69.9752 60.1357 71.0608L59.2373 71.6925L58.3389 71.0608C56.7666 69.9752 55.5313 69.6791 52.4318 69.6791C49.512 69.6791 48.3665 69.4027 47.4905 68.5342C46.4798 67.5473 46.4573 67.1525 46.4349 56.2367C46.4349 50.5321 46.5023 45.7948 46.5921 45.7355C46.6595 45.6566 52.4093 45.6171 59.3271 45.6368L71.9274 45.6961L71.9947 56.0394ZM29.5672 55.3485C29.5223 55.388 28.1746 56.1381 26.58 57.0066L23.705 58.6054L22.5371 58.2107C21.3242 57.7961 18.6964 56.3157 18.0226 55.6643C17.6183 55.2695 17.6408 55.2695 23.6377 55.2695C26.9618 55.2695 29.6121 55.309 29.5672 55.3485ZM37.2262 55.5656L37.9 55.8617L36.6646 58.0133L35.4518 60.1648L34.194 60.5793C33.5202 60.8162 32.2175 61.0926 31.3191 61.211C29.118 61.5268 24.7831 61.2307 25.8837 60.8557C26.0185 60.8162 28.3319 59.5529 31.0496 58.033C33.7673 56.5131 36.1256 55.2695 36.2828 55.2695C36.44 55.2695 36.8668 55.4077 37.2262 55.5656ZM87.5148 58.0725C90.2999 59.6121 92.6358 60.8952 92.6807 60.9347C92.9502 61.1123 92.3662 61.211 90.6593 61.3294C88.5031 61.4479 86.0774 61.1715 84.2805 60.5793L83.0228 60.1648L81.8099 58.0133L80.5746 55.8814L81.2035 55.5854C81.5404 55.4077 81.9447 55.2893 82.1243 55.2695C82.304 55.2695 84.7297 56.5328 87.5148 58.0725ZM100.452 55.6643C99.7781 56.3157 97.1503 57.7961 95.9374 58.2107L94.7695 58.6054L91.8946 57.0066C90.2999 56.1381 88.9523 55.388 88.9074 55.3485C88.8624 55.309 91.5128 55.2695 94.8369 55.2695C100.834 55.2695 100.856 55.2695 100.452 55.6643ZM43.0209 59.0594C42.9535 59.7306 42.8188 59.9477 42.0551 60.4214C41.2241 60.9544 38.5513 62.04 38.4166 61.9019C38.3716 61.8624 38.9107 60.8162 39.5845 59.5332L40.8198 57.2434L41.9653 57.7369C43.0658 58.2304 43.0883 58.2699 43.0209 59.0594ZM78.8901 59.5332C79.5639 60.8162 80.1254 61.8821 80.1254 61.9019C80.1254 62.0993 77.6547 61.1123 76.5991 60.5004C75.4985 59.849 75.4087 59.7503 75.4087 59.02C75.4087 58.2896 75.4761 58.2107 76.4868 57.7567C77.0708 57.4803 77.5649 57.2632 77.6098 57.2434C77.6323 57.2434 78.2162 58.2699 78.8901 59.5332ZM11.9583 62.0795C13.1262 63.0862 12.2727 64.8233 10.6107 64.8233C9.95933 64.8233 9.64488 64.6851 9.2406 64.2706C8.14004 63.1652 8.94861 61.586 10.6107 61.586C11.1722 61.586 11.5989 61.744 11.9583 62.0795ZM44.2562 69.6791C44.4808 69.9949 45.0873 70.5871 45.6039 70.9819L46.5696 71.7319L45.7835 73.0742L44.9974 74.4165H42.2348H39.4722L39.6069 73.8638C39.9439 72.6794 40.9321 71.1595 42.0776 70.1528C42.7514 69.5606 43.4252 69.0869 43.5824 69.0869C43.7396 69.0869 44.0541 69.3435 44.2562 69.6791ZM76.397 70.1528C77.5424 71.1595 78.5307 72.6794 78.8676 73.8638L79.0024 74.4165H76.2397H73.4771L72.691 73.0742L71.9049 71.7319L72.8707 70.9819C73.3873 70.5871 73.9937 69.9949 74.2183 69.6791C74.4204 69.3435 74.7349 69.0869 74.8921 69.0869C75.0493 69.0869 75.7231 69.5606 76.397 70.1528ZM95.0839 76.114C96.5439 76.7259 97.3974 78.2459 97.0829 79.6671C96.8808 80.6935 95.3535 82.0358 94.1855 82.2134C92.5684 82.4898 90.8389 81.7397 90.1427 80.4566C88.6378 77.6734 91.917 74.7915 95.0839 76.114Z" fill="white"/>
<path d="M56.2725 49.486C56.0704 49.6833 55.8683 50.0189 55.8233 50.236C55.7784 50.4532 55.5538 50.6506 55.3067 50.69C54.5206 50.8282 54.0714 51.3414 54.0714 52.1113C54.0714 52.8811 54.6105 53.493 55.2618 53.493C55.5763 53.493 55.6437 53.6904 55.6437 54.4799C55.6437 55.4669 55.6437 55.4669 54.9025 55.4669C53.6671 55.4669 51.8703 56.5723 51.0617 57.8356L50.3655 58.9212V62.119C50.3655 65.1588 50.3879 65.3562 50.8596 65.751C51.466 66.2839 52.5441 66.3234 53.1506 65.8497C53.5324 65.5338 53.5998 65.1588 53.6671 62.4743C53.7345 59.5924 53.757 59.4147 54.2736 58.941C54.588 58.6646 54.9923 58.4278 55.2169 58.4278C55.5763 58.4278 55.6212 58.7633 55.6886 61.8821C55.756 65.1193 55.7784 65.3562 56.2501 65.751C56.8565 66.2839 57.9346 66.3234 58.5635 65.8299C58.9902 65.4944 59.0127 65.2378 59.0127 61.9413C59.0127 58.408 59.0127 58.408 59.5068 58.4672C59.9111 58.5067 60.2705 59.0989 61.5956 62.04C62.4716 63.9547 63.37 65.6918 63.5721 65.8694C64.4706 66.659 66.2898 65.9484 66.2449 64.8035C66.2225 64.5074 65.616 62.948 64.8748 61.3294L63.5497 58.4278H64.4706C65.4139 58.4278 65.4139 58.4475 66.2 59.77C67.1209 61.3294 67.8396 61.7637 68.8279 61.3492C69.1648 61.211 69.5915 60.8359 69.7487 60.5399C70.0407 60.0069 69.9958 59.849 69.0075 58.0725C67.615 55.5261 67.5476 55.4669 65.9305 55.4669H64.6278V54.2233C64.6278 52.7626 65.077 52.2297 66.4695 52.0126C67.4802 51.8349 68.0642 51.3019 68.0642 50.5321C68.0642 49.0319 65.9529 48.6569 63.7968 49.7426C62.1122 50.5913 61.416 51.7165 61.2587 53.7891L61.1464 55.3682H60.1357H59.125L59.0576 52.6047C59.0127 50.3939 58.9229 49.782 58.6309 49.5057C58.1592 49.0319 56.7217 49.0319 56.2725 49.486Z" fill="white"/>
</g>
<defs>
<clipPath id="clip0_30_23">
<rect width="114.997" height="101.064" fill="white" transform="translate(0.840454)"/>
</clipPath>
</defs>
</svg>
