<svg width="117" height="99" viewBox="0 0 117 99" fill="none" xmlns="http://www.w3.org/2000/svg">
<g clip-path="url(#clip0_30_35)">
<path d="M50.5436 1.59718C49.5485 3.05526 52.2021 12.5813 54.5239 15.8863L56.9563 19.1912L53.1972 22.0102L49.438 24.7319L48.8852 17.7332C48.2218 9.66518 47.669 8.69313 42.6936 6.84624C35.1753 4.02731 23.0132 5.9714 20.4703 10.3456C19.6963 11.7065 19.0329 16.3723 19.0329 21.1353V29.4949L15.716 30.0782C13.947 30.467 11.404 31.6334 10.1878 32.7027C8.08711 34.5496 7.97654 35.8132 7.97654 57.0038C7.97654 77.514 7.75542 79.4581 6.09696 80.0413C1.45328 81.4994 0.237076 83.3463 0.237076 89.5674C0.237076 98.0242 1.45328 98.8018 14.9421 98.8018C24.0083 98.8018 25.8879 98.5102 27.5463 96.955C28.9837 95.5941 30.0893 95.3025 31.195 95.8857C32.0795 96.3717 35.9492 96.8578 39.8189 96.8578C47.1161 96.8578 52.5338 95.1081 53.75 92.4835C54.0817 91.6087 54.4134 85.4848 54.4134 78.8749C54.4134 68.96 54.0817 66.5299 52.5338 65.2662C49.9908 63.0305 46.1211 61.8641 41.0351 61.8641H36.7231V47.9638C36.7231 32.0222 36.1703 31.0502 27.9886 30.0782L23.4555 29.4949V23.371V17.2471L26.9935 18.2192C31.6372 19.3856 38.0499 19.3856 41.588 18.122L44.4626 17.1499V23.371C44.4626 27.648 43.9098 29.8837 42.8042 30.7586C40.9246 32.1195 40.4823 35.6188 42.2513 35.6188C42.8042 35.6188 44.7943 33.9663 46.6739 31.8278C50.7648 27.3564 58.9465 22.0102 61.7106 22.0102C63.369 22.0102 63.369 22.3018 61.2683 24.2459C59.9416 25.5095 58.8359 27.0648 58.8359 27.648C58.8359 29.6893 61.7106 28.9117 64.9169 25.8984C68.8972 22.2046 69.8923 22.2046 69.8923 25.9956C69.8923 28.3285 70.3346 28.9117 71.8824 28.6201C72.9881 28.4257 73.8726 27.2592 74.0937 25.6067L74.4254 22.885L78.2952 25.8984C81.8332 28.6201 85.3712 29.6893 85.3712 28.1341C85.3712 27.7452 84.0445 26.2872 82.4966 24.8291C80.1747 22.6906 79.9536 22.2046 81.3909 21.7186C82.386 21.3297 85.2607 22.6906 88.467 24.9263C102.84 34.8412 111.907 51.2688 111.907 67.2103C111.907 75.8615 109.032 80.7218 101.956 84.2212C97.3121 86.4569 95.5431 86.6513 78.848 87.1373C65.6909 87.5261 60.4944 87.9149 60.1627 88.7898C59.831 89.7618 64.0324 90.0534 78.4057 90.0534C96.6488 90.0534 97.3121 89.9562 103.172 87.3317C109.474 84.5128 113.344 80.5274 115.223 74.5979C119.093 62.1557 111.243 40.6735 98.1966 28.0369L92.5579 22.6906L96.4276 23.2738C98.5283 23.6626 101.624 24.8291 103.393 25.9956C106.157 27.7452 106.489 27.7452 107.152 26.2872C107.926 24.4403 105.494 22.399 100.629 20.8437C97.865 19.9689 97.7544 19.7745 99.1917 16.8583C100.85 13.1645 99.9657 10.4428 95.9854 7.62388C94.1058 6.45742 93.1107 4.70773 93.1107 3.05526C93.1107 0.527939 93.0001 0.430733 87.9142 1.01396C84.929 1.30557 82.1649 1.49998 81.5015 1.49998C71.993 1.01396 50.8753 1.11116 50.5436 1.59718ZM62.1528 5.48537C63.8113 5.48537 66.0226 4.80494 67.2388 4.02731C68.3444 3.24966 70.5557 2.66644 72.1036 2.66644C73.6515 2.66644 75.8627 3.24966 76.9684 4.02731C79.7325 5.87419 83.16 5.87419 86.2557 3.9301C88.5776 2.47203 88.6881 2.56924 88.6881 5.48537C88.6881 9.76237 86.1452 14.5254 82.6071 16.9555C78.2952 19.9689 77.5212 19.58 79.4008 15.6919C82.9388 8.1099 79.5114 6.74903 75.7522 14.331C74.3148 17.2471 72.6564 19.094 71.8824 18.8996C71.1085 18.7052 69.2289 16.4695 67.7916 13.9422C66.3543 11.4149 64.5852 9.37356 63.7007 9.37356C61.7106 9.37356 61.7106 10.54 63.8113 14.9142C65.912 19.1912 65.3592 19.8717 61.4894 17.7332C58.1725 15.7891 54.5239 9.17915 54.4134 5.19376C54.4134 2.56924 54.5239 2.47203 56.8458 3.9301C58.1725 4.80494 60.6049 5.48537 62.1528 5.48537ZM42.9147 10.8316C45.0154 12.2897 45.0154 12.2897 42.9147 13.7478C41.4774 14.7198 38.271 15.2058 33.959 15.2058C29.6471 15.2058 26.4407 14.7198 25.0034 13.7478C22.9027 12.2897 22.9027 12.2897 25.0034 10.8316C26.4407 9.85958 29.6471 9.37356 33.959 9.37356C38.271 9.37356 41.4774 9.85958 42.9147 10.8316ZM96.4276 14.331C96.4276 16.5667 92.3368 19.094 88.7987 19.094C86.2557 19.094 86.2557 18.9968 87.9142 17.3443C88.9093 16.3723 90.3466 14.1366 91.01 12.3869C92.2262 9.37356 92.3368 9.37356 94.3269 10.9288C95.5431 11.8037 96.4276 13.3589 96.4276 14.331ZM31.8583 34.8412C33.2957 36.1048 33.2957 36.3965 31.7478 37.5629C29.3154 39.3126 21.0231 39.8958 16.3794 38.535C8.4188 36.2993 13.2836 32.5083 23.7872 32.9943C27.6569 33.1887 30.8633 33.8691 31.8583 34.8412ZM33.4062 52.1436V62.3501L29.7576 63.8082C26.2196 65.2662 26.2196 65.3634 25.8879 72.8482C25.6668 79.5553 25.3351 80.4302 23.7872 79.8469C22.6815 79.5553 19.8069 78.9721 17.1533 78.6805L12.3991 78.0973V60.0172V41.9371H22.9027H33.4062V52.1436ZM45.8999 65.8495C50.3225 66.9187 51.207 68.96 47.8901 70.6125C44.5732 72.1678 34.2907 71.779 31.4161 70.0293C28.4309 68.1824 29.0942 67.0159 33.7379 65.8495C38.6027 64.5858 41.0351 64.5858 45.8999 65.8495ZM39.4872 74.9867C41.9196 74.9867 45.2366 74.6951 47.0056 74.2091L49.9908 73.5286V82.6659V91.8031L46.0105 92.9696C41.3668 94.3304 33.0745 93.7472 30.6421 91.9975C29.4259 91.1227 28.9837 88.5954 28.9837 82.1799V73.5286L32.0795 74.2091C33.7379 74.6951 37.0548 74.9867 39.4872 74.9867ZM23.566 84.1239L26.2196 86.068L22.1287 87.5261C17.2639 89.373 14.4998 89.4702 8.86106 88.0121C4.32794 86.9429 3.44343 84.9016 6.64978 83.3463C10.0773 81.4994 20.6914 82.0826 23.566 84.1239ZM23.8977 95.5941C21.5759 97.1494 9.85613 97.2466 6.76034 95.8857C5.6547 95.3025 4.65963 94.0388 4.65963 93.0668C4.65963 91.5115 5.43358 91.3171 12.178 91.7059C16.2688 91.9975 20.802 91.7059 22.3498 91.2199C24.6717 90.4422 25.1139 90.5395 25.4456 92.2891C25.6668 93.4556 25.0034 94.9137 23.8977 95.5941Z" fill="white"/>
<path d="M69.8923 37.7573C69.7817 38.4377 68.2338 39.8958 66.2437 40.9651C61.7106 43.4924 60.9366 47.4778 64.4747 50.7827C65.8014 52.0464 67.5705 53.1157 68.455 53.1157C69.3395 53.1157 69.8923 54.3793 69.8923 56.5178C69.8923 60.5032 68.1233 60.9892 66.5754 57.4899C65.3592 54.6709 62.1528 54.1849 62.1528 56.8094C62.1528 59.1423 65.2486 62.8361 67.1282 62.8361C68.0127 62.8361 69.2289 63.711 69.8923 64.7802C70.5557 65.8495 71.5508 66.7243 72.1036 66.7243C72.6564 66.7243 73.4303 65.8495 73.762 64.7802C74.0937 63.711 75.0888 62.8361 75.8627 62.8361C78.2952 62.8361 80.9487 59.434 80.9487 56.3234C80.9487 53.4073 78.074 50.1995 75.6416 50.1995C74.8677 50.1995 74.3149 48.7414 74.3149 46.7973C74.3149 42.812 76.0839 42.3259 77.6318 45.8253C78.1846 47.1862 79.1797 48.2554 79.843 48.2554C81.9438 48.2554 80.9487 43.3952 78.5163 41.4511C77.079 40.2846 75.1994 38.8266 74.2043 38.0489C72.1036 36.2992 69.8923 36.202 69.8923 37.7573ZM69.8923 46.3113C69.8923 49.3247 68.1233 50.2967 67.0176 47.7694C66.1331 45.9225 67.2388 43.3952 68.7867 43.3952C69.3395 43.3952 69.8923 44.6588 69.8923 46.3113ZM77.6318 56.5178C77.6318 57.1982 76.8578 58.2675 75.9733 58.9479C74.536 60.0172 74.3149 59.6284 74.3149 56.5178C74.3149 53.4073 74.536 53.0184 75.9733 54.0877C76.8578 54.7681 77.6318 55.8374 77.6318 56.5178Z" fill="white"/>
<path d="M104.941 67.3075C104.499 67.6964 104.167 69.2516 104.167 70.7097C104.167 74.7923 99.9657 78.3889 93.6635 79.8469C87.0297 81.305 85.9241 83.9295 92.0051 83.4435C100.961 82.6659 107.705 77.514 107.926 71.0013C108.037 67.5991 106.599 65.8495 104.941 67.3075Z" fill="white"/>
</g>
<defs>
<clipPath id="clip0_30_35">
<rect width="116.092" height="98.1767" fill="white" transform="translate(0.237076 0.625153)"/>
</clipPath>
</defs>
</svg>
