<svg width="119" height="81" viewBox="0 0 119 81" fill="none" xmlns="http://www.w3.org/2000/svg">
<path d="M48.751 1.01525C48.3129 1.40025 47.9844 7.75286 47.9844 15.068C47.9844 26.2332 48.2034 28.3507 49.6272 28.3507C51.0509 28.3507 51.27 26.3294 51.27 16.3193V4.2878H57.2936H63.3173V24.9819C63.3173 45.0023 63.4268 45.676 65.5077 45.676C67.5886 45.676 67.6981 45.0023 67.6981 32.682V19.6881H73.1741H78.6502V47.1198V74.5515H72.0789C68.4648 74.5515 65.5077 74.359 65.5077 74.1665C65.5077 74.0703 66.0553 72.5302 66.7124 70.7977C68.6838 65.7926 67.041 60.1138 62.2221 54.9162C59.484 52.0286 57.8412 49.3336 57.8412 47.6011C57.8412 41.1522 53.3509 34.6071 46.7796 31.3345C44.4797 30.1795 42.5083 28.832 42.5083 28.447C42.5083 28.062 43.275 25.6557 44.2607 23.1531C45.9035 18.9181 45.9035 18.5331 44.1511 16.8005C42.1798 14.8755 41.1941 14.683 32.4324 14.7792C23.0136 14.7792 21.3708 16.8005 24.1088 24.7894C25.3136 28.2545 25.204 28.7357 23.3422 29.6982C22.247 30.2758 19.3994 32.2008 17.0995 34.0296C13.0472 37.1096 11.5139 40.0934 10.1997 47.6973C9.87112 49.5261 8.55687 52.1249 7.1331 53.3762C1.98562 58.1887 0.890411 60.4025 0.890411 66.5626C0.890411 71.5677 1.32849 72.9152 3.73795 75.4178C8.11878 79.9416 11.952 80.5191 36.4847 79.9416C48.532 79.6529 71.8599 79.1716 88.288 78.8828C116.873 78.3053 118.078 78.2091 118.078 76.4766C118.078 75.4178 117.311 74.5515 116.435 74.5515C115.121 74.5515 114.792 72.2415 114.573 61.2688L114.244 48.0823L106.907 47.7936L99.4591 47.5048V40.8634C99.4591 32.3933 98.2544 31.2383 89.6023 31.2383H83.1405L82.812 23.7306L82.4834 16.3193L75.1455 16.0305L67.8076 15.7418L67.4791 8.33038L67.1505 0.918999L58.3888 0.630241C53.4604 0.533989 49.1891 0.630241 48.751 1.01525ZM36.3752 18.6293C36.7037 19.1106 38.1275 19.3031 39.3322 19.0143C41.4131 18.5331 41.6322 18.7256 40.975 20.9393C39.1132 27.5807 38.3465 28.3507 33.8562 28.3507C29.6944 28.3507 29.4753 28.1582 27.8325 23.8269C25.6421 18.2443 25.6421 18.4368 28.1611 19.0143C29.2563 19.2068 30.8991 19.1106 31.6658 18.6293C33.6371 17.5705 35.6085 17.5705 36.3752 18.6293ZM26.6278 35.1846C24.8755 37.9759 25.0945 40.8634 26.8468 40.8634C27.3944 40.8634 28.9277 38.9384 30.3515 36.5321C31.7753 34.1258 33.4181 32.2008 33.8562 32.2008C34.4038 32.2008 35.8275 34.0296 37.1418 36.2434C40.0989 41.3447 39.6608 41.0559 41.7417 40.2859C43.3845 39.8047 43.275 39.3234 41.4131 35.9546C38.8941 31.6233 39.1132 31.527 44.6987 34.2221C49.6272 36.6284 53.4604 42.211 53.4604 46.831C53.4604 48.9486 54.5556 51.4511 56.1984 53.4724C62.4411 60.98 63.3173 62.6163 63.3173 66.6589C63.3173 70.0277 62.6601 71.3752 60.1412 73.6853L56.9651 76.4766H33.8562C11.4044 76.4766 10.7473 76.3803 7.89974 74.2628C5.70933 72.5302 4.83316 70.894 4.5046 67.2364C3.95699 62.7126 4.17604 62.1351 8.44735 57.8037C12.9377 53.2799 13.3758 52.3174 14.471 45.1948C15.1281 40.7672 17.7566 37.3984 22.7946 34.3183C27.723 31.4308 28.7087 31.6233 26.6278 35.1846ZM95.0783 54.8199V74.5515H89.0547H83.031V54.8199V35.0883H89.0547H95.0783V54.8199ZM110.411 62.5201V74.5515H104.935H99.4591V62.5201V50.4886H104.935H110.411V62.5201Z" fill="white"/>
<path d="M31.5563 47.5048C31.5563 48.4673 30.7896 49.8148 29.9134 50.4886C27.9421 51.9324 27.723 56.6487 29.6944 57.9962C30.3515 58.4775 31.9943 59.1512 33.1991 59.3437C36.8133 59.9213 35.8276 62.52 31.8848 62.8088C29.1468 63.0013 28.2706 63.5788 28.2706 65.0226C28.2706 65.9851 29.0373 66.8514 29.9134 66.8514C30.7896 66.8514 31.5563 67.5251 31.5563 68.2951C31.5563 69.0652 32.5419 69.7389 33.7467 69.7389C35.1704 69.7389 35.9371 69.0652 35.9371 67.9101C35.9371 66.9476 36.7037 65.6001 37.5799 64.9263C40.975 62.4238 39.0037 56.2637 34.7324 56.2637C32.8705 56.2637 31.2277 54.0499 32.3229 52.9911C32.761 52.7024 34.6228 52.4136 36.7037 52.4136C40.756 52.4136 41.9607 49.7186 38.1275 48.8523C36.9228 48.5636 35.9371 47.6973 35.9371 47.0235C35.9371 46.2535 34.9514 45.676 33.7467 45.676C32.3229 45.676 31.5563 46.3498 31.5563 47.5048Z" fill="white"/>
<path d="M64.0839 49.1411C62.5506 50.5849 63.4268 52.4136 65.6172 52.4136C67.1505 52.4136 67.6981 51.9324 67.4791 50.7774C67.1505 49.0448 65.2886 48.1786 64.0839 49.1411Z" fill="white"/>
</svg>
